<?xml version="1.0" encoding="utf-8"?>
<!-- Generator: Adobe Illustrator 22.0.1, SVG Export Plug-In . SVG Version: 6.00 Build 0)  -->
<svg version="1.2" baseProfile="tiny" xmlns="http://www.w3.org/2000/svg" xmlns:xlink="http://www.w3.org/1999/xlink" x="0px"
	 y="0px" width="32px" height="32px" viewBox="0 0 32 32" xml:space="preserve">
<g id="Ebene_1">
	<g>
		<g>
			<path fill="none" stroke="#909090" stroke-width="1.75" stroke-miterlimit="10" d="M24.5,14.6l-1.3-0.3c-0.2-0.1-0.4-0.2-0.5-0.4
				c-0.1-0.4-0.3-0.7-0.4-1c-0.1-0.2-0.1-0.4,0-0.6L23,11c0.2-0.3,0.1-0.6-0.1-0.8l-1.1-1.1C21.6,8.9,21.3,8.9,21,9l-1.2,0.7
				c-0.2,0.1-0.4,0.1-0.6,0c-0.3-0.2-0.7-0.3-1-0.4c-0.2-0.1-0.4-0.2-0.4-0.5l-0.3-1.3C17.3,7.2,17.1,7,16.8,7h-1.6
				c-0.3,0-0.6,0.2-0.6,0.5l-0.3,1.3c-0.1,0.2-0.2,0.4-0.4,0.5c-0.4,0.1-0.7,0.3-1,0.4c-0.2,0.1-0.4,0.1-0.6,0L11,9
				c-0.3-0.2-0.6-0.1-0.8,0.1l-1.1,1.1C8.9,10.4,8.9,10.7,9,11l0.7,1.2c0.1,0.2,0.1,0.4,0,0.6c-0.2,0.3-0.3,0.7-0.4,1
				c-0.1,0.2-0.2,0.4-0.5,0.4l-1.3,0.3C7.2,14.7,7,14.9,7,15.2v1.6c0,0.3,0.2,0.6,0.5,0.6l1.3,0.3c0.2,0.1,0.4,0.2,0.5,0.4
				c0.1,0.4,0.3,0.7,0.4,1c0.1,0.2,0.1,0.4,0,0.6L9,21c-0.2,0.3-0.1,0.6,0.1,0.8l1.1,1.1c0.2,0.2,0.5,0.2,0.8,0.1l1.2-0.7
				c0.2-0.1,0.4-0.1,0.6,0c0.3,0.2,0.7,0.3,1,0.4c0.2,0.1,0.4,0.2,0.4,0.5l0.3,1.3c0.1,0.3,0.3,0.5,0.6,0.5h1.6
				c0.3,0,0.6-0.2,0.6-0.5l0.3-1.3c0.1-0.2,0.2-0.4,0.4-0.5c0.4-0.1,0.7-0.3,1-0.4c0.2-0.1,0.4-0.1,0.6,0L21,23
				c0.3,0.2,0.6,0.1,0.8-0.1l1.1-1.1c0.2-0.2,0.2-0.5,0.1-0.8l-0.7-1.2c-0.1-0.2-0.1-0.4,0-0.6c0.2-0.3,0.3-0.7,0.4-1
				c0.1-0.2,0.2-0.4,0.5-0.4l1.3-0.3c0.3-0.1,0.5-0.3,0.5-0.6v-1.6C25,14.9,24.8,14.7,24.5,14.6z"/>
		</g>
		<circle fill="none" stroke="#909090" stroke-width="1.75" stroke-miterlimit="10" cx="16" cy="16" r="3"/>
	</g>
</g>
<g id="Ebene_2">
</g>
</svg>
