<?xml version="1.0" encoding="utf-8"?>
<!-- Generator: Adobe Illustrator 22.0.1, SVG Export Plug-In . SVG Version: 6.00 Build 0)  -->
<svg version="1.2" baseProfile="tiny" xmlns="http://www.w3.org/2000/svg" xmlns:xlink="http://www.w3.org/1999/xlink" x="0px"
	 y="0px" width="32px" height="32px" viewBox="0 0 32 32" xml:space="preserve">
<g id="Ebene_1">
	<path fill="#909090" d="M10.7,14.4c-2.1,0-2.1,3.2,0,3.2S12.8,14.4,10.7,14.4z"/>
	<path fill="#909090" d="M16,17.6c2.1,0,2.1-3.2,0-3.2S13.9,17.6,16,17.6z"/>
	<path fill="#909090" d="M21.3,17.6c2.1,0,2.1-3.2,0-3.2S19.2,17.6,21.3,17.6z"/>
	<path fill="none" stroke="#909090" stroke-width="2" stroke-linejoin="round" stroke-miterlimit="10" d="M26,16c0-1.7,1.3-3,3-3V7
		H3v6c1.7,0,3,1.3,3,3s-1.3,3-3,3v6h26v-6C27.3,19,26,17.7,26,16z"/>
</g>
<g id="Ebene_3">
</g>
<g id="Ebene_2">
</g>
</svg>
