<?xml version="1.0" encoding="utf-8"?>
<!-- Generator: Adobe Illustrator 22.0.1, SVG Export Plug-In . SVG Version: 6.00 Build 0)  -->
<svg version="1.2" baseProfile="tiny" xmlns="http://www.w3.org/2000/svg" xmlns:xlink="http://www.w3.org/1999/xlink" x="0px"
	 y="0px" width="32px" height="32px" viewBox="0 0 32 32" xml:space="preserve">
<g id="Ebene_1">
	<path fill="#909090" d="M16,28c-1.9,0-3.9-0.5-5.6-1.4l1.2-2.2c1.4,0.7,2.9,1.1,4.4,1.1l0.3,0c3.4-0.1,6.5-2,8-5l2.2,1.2
		c-2,3.8-5.9,6.2-10.2,6.4C16.3,28,16.1,28,16,28z"/>
	<path fill="#909090" d="M5.8,22.4c-1.1-1.8-1.8-3.9-1.8-6c0-0.1,0-0.3,0-0.4c0-4.1,2.1-7.9,5.6-10.1L10.9,8c-2.8,1.8-4.4,4.7-4.4,8
		c0,0.1,0,0.2,0,0.3C6.6,18,7.1,19.6,8,21.1L5.8,22.4z"/>
	<path fill="#909090" d="M25.5,15.7c-0.2-5.1-4.3-9.1-9.5-9.1l-0.3,0L15.6,4c0.1,0,0.3,0,0.4,0c6.5,0,11.7,5.1,12,11.6L25.5,15.7z"
		/>
	<polygon fill="#909090" points="21.4,9.9 16.7,11.2 21.2,14.8 	"/>
</g>
<g id="Ebene_2">
</g>
</svg>
