<?xml version="1.0" encoding="utf-8"?>
<!-- Generator: Adobe Illustrator 22.0.1, SVG Export Plug-In . SVG Version: 6.00 Build 0)  -->
<svg version="1.2" baseProfile="tiny" xmlns="http://www.w3.org/2000/svg" xmlns:xlink="http://www.w3.org/1999/xlink" x="0px"
	 y="0px" width="32px" height="32px" viewBox="0 0 32 32" xml:space="preserve">
<g id="Ebene_1">
	<path fill="#909090" stroke="#909090" stroke-width="0.75" stroke-miterlimit="10" d="M25.1,7.8L24.4,7l1.5-1.5l-0.6-0.6l-1.5,1.5
		L23,5.6l1.9-1.9c0.1-0.1,0.2-0.2,0.4-0.2l0,0c0.1,0,0.3,0.1,0.4,0.2L27,5.1c0.1,0.1,0.2,0.2,0.2,0.4c0,0.1-0.1,0.3-0.2,0.4
		L25.1,7.8z"/>
	<path fill="#909090" stroke="#909090" stroke-width="0.75" stroke-miterlimit="10" d="M7.3,24.6l-2.1,1l1-2.1
		c-0.3-0.3-0.5-0.7-0.7-1l-1.9,4c-0.1,0.2-0.1,0.4,0.1,0.6c0.1,0.1,0.2,0.2,0.4,0.2c0.1,0,0.2,0,0.2-0.1l4-1.9
		C7.9,25.1,7.6,24.8,7.3,24.6z"/>
	<path fill="#909090" stroke="#909090" stroke-width="0.75" stroke-miterlimit="10" d="M10,23.8c-0.3-0.2-0.7-0.3-1-0.6L22.6,9.8
		L21,8.2L7.5,21.7c-0.2-0.3-0.4-0.6-0.6-1L20.6,7c0.2-0.2,0.5-0.2,0.8,0l2.4,2.4c0.1,0.1,0.2,0.2,0.2,0.4s-0.1,0.3-0.2,0.4L10,23.8z
		"/>
</g>
<g id="Ebene_2">
</g>
</svg>
