<?xml version="1.0" encoding="utf-8"?>
<!-- Generator: Adobe Illustrator 22.0.1, SVG Export Plug-In . SVG Version: 6.00 Build 0)  -->
<svg version="1.2" baseProfile="tiny" xmlns="http://www.w3.org/2000/svg" xmlns:xlink="http://www.w3.org/1999/xlink" x="0px"
	 y="0px" width="32px" height="32px" viewBox="0 0 32 32" xml:space="preserve">
<g id="Ebene_1">
	<g>
		
			<line fill="none" stroke="#909090" stroke-width="1.75" stroke-linecap="round" stroke-linejoin="round" stroke-miterlimit="10" x1="8.8" y1="17.3" x2="13.7" y2="16.4"/>
		
			<line fill="none" stroke="#909090" stroke-width="1.75" stroke-linecap="round" stroke-linejoin="round" stroke-miterlimit="10" x1="9.3" y1="19.8" x2="19" y2="18.1"/>
		<g>
			<path fill="#909090" stroke="#909090" stroke-width="0.75" stroke-miterlimit="10" d="M23,12.3c-0.2,0-0.4,0.3-0.3,0.5l0.6,3.3
				c0,0.2,0.3,0.4,0.5,0.3s0.4-0.3,0.3-0.5l-0.6-3.3C23.4,12.4,23.2,12.2,23,12.3z"/>
			<path fill="#909090" stroke="#909090" stroke-width="0.75" stroke-miterlimit="10" d="M24,18c-0.2,0-0.4,0.3-0.3,0.5l0.5,2.8
				l0.8-0.1l-0.5-2.8C24.5,18.1,24.2,18,24,18z"/>
			<path fill="#909090" stroke="#909090" stroke-width="0.75" stroke-miterlimit="10" d="M21.7,7.5l0.5,2.8c0,0.2,0.3,0.4,0.5,0.3
				s0.4-0.3,0.3-0.5l-0.5-2.8L21.7,7.5z"/>
		</g>
		<path fill="none" stroke="#909090" stroke-width="1.75" stroke-linecap="square" stroke-miterlimit="10" d="M19.8,8.3L4.4,11
			c-0.7,0.1-1.1,0.8-1,1.4l0.6,3.2c1.1-0.2,2.2,0.6,2.4,1.7c0.2,1.1-0.6,2.2-1.7,2.4L5.2,23c0.1,0.7,0.8,1.1,1.4,1l15.4-2.7"/>
		<path fill="none" stroke="#909090" stroke-width="1.75" stroke-linecap="square" stroke-miterlimit="10" d="M26.9,20.4l1.6-0.3
			c0.7-0.1,1.1-0.8,1-1.4L29,15.4c-1.1,0.2-2.2-0.6-2.4-1.7c-0.2-1.1,0.6-2.2,1.7-2.4l-0.6-3.2c-0.1-0.7-0.8-1.1-1.4-1l-1.6,0.3"/>
	</g>
</g>
<g id="Ebene_2">
</g>
</svg>
