<?xml version="1.0" encoding="utf-8"?>
<!-- Generator: Adobe Illustrator 22.0.1, SVG Export Plug-In . SVG Version: 6.00 Build 0)  -->
<svg version="1.2" baseProfile="tiny" xmlns="http://www.w3.org/2000/svg" xmlns:xlink="http://www.w3.org/1999/xlink" x="0px"
	 y="0px" width="32px" height="32px" viewBox="0 0 32 32" xml:space="preserve">
<g id="Ebene_1">
	<g>
		<path fill="#909090" d="M15.5,5c2.4,0,4.4,2,4.4,4.4s-2,4.4-4.4,4.4s-4.4-2-4.4-4.4S13.1,5,15.5,5 M15.5,3C12,3,9.1,5.9,9.1,9.4
			s2.9,6.4,6.4,6.4s6.4-2.9,6.4-6.4S19.1,3,15.5,3L15.5,3z"/>
		<path fill="#909090" stroke="#909090" stroke-width="0.75" stroke-miterlimit="10" d="M9.9,15.9l-2.5,7.4l1.4-0.7l2-6
			C10.5,16.3,10.2,16.1,9.9,15.9z"/>
		<path fill="#909090" stroke="#909090" stroke-width="0.75" stroke-miterlimit="10" d="M13.7,17.8l-1.9,5.8l0.7,1.3l2.3-7
			C14.4,17.9,14.1,17.8,13.7,17.8z"/>
		<path fill="#909090" stroke="#909090" stroke-width="0.75" stroke-miterlimit="10" d="M16.2,17.9l3.3,9.9l0.7-1.3l-2.9-8.7
			C17,17.8,16.6,17.9,16.2,17.9z"/>
		<path fill="#909090" stroke="#909090" stroke-width="0.75" stroke-miterlimit="10" d="M21.1,15.9c-0.3,0.2-0.6,0.5-0.9,0.7l3,9
			l1.4,0.7L21.1,15.9z"/>
	</g>
</g>
<g id="Ebene_2">
</g>
</svg>
