<?xml version="1.0" encoding="utf-8"?>
<!-- Generator: Adobe Illustrator 22.0.1, SVG Export Plug-In . SVG Version: 6.00 Build 0)  -->
<svg version="1.2" baseProfile="tiny" xmlns="http://www.w3.org/2000/svg" xmlns:xlink="http://www.w3.org/1999/xlink" x="0px"
	 y="0px" width="32px" height="32px" viewBox="0 0 32 32" xml:space="preserve">
<g id="Ebene_1">
	<g>
		<g>
			<path fill="#909090" d="M13.7,8.2c1.6,0,3,1.3,3,3c0,1.2-0.7,3.2-1.8,4.4c-0.4,0.5-0.7,1-0.7,1.6v0.2c0,1.6,1.1,2.9,2.6,3.3
				c2.1,0.6,3.7,1.7,3.9,2.8c-0.7,0.5-3.1,1.4-6.9,1.4S7.5,24,6.8,23.5c0.2-1.1,1.7-2.2,3.9-2.8c1.5-0.4,2.6-1.8,2.6-3.3v-0.2
				c0-0.6-0.2-1.2-0.7-1.6c-1.1-1.2-1.8-3.2-1.8-4.4C10.8,9.5,12.1,8.2,13.7,8.2 M13.7,6.5C11.1,6.5,9,8.6,9,11.2
				c0,1.7,0.9,4.2,2.3,5.6c0.1,0.1,0.2,0.3,0.2,0.4v0.2c0,0.8-0.5,1.4-1.3,1.6C7.2,19.8,5,21.6,5,23.7c0,1.6,3.9,2.9,8.7,2.9
				c4.8,0,8.7-1.3,8.7-2.9c0-2.1-2.1-3.9-5.2-4.7c-0.7-0.2-1.3-0.9-1.3-1.6v-0.2c0-0.2,0.1-0.3,0.2-0.4c1.4-1.4,2.3-3.9,2.3-5.6
				C18.4,8.6,16.3,6.5,13.7,6.5L13.7,6.5z"/>
		</g>
		<g>
			<path fill="#909090" stroke="#909090" stroke-width="0.75" stroke-miterlimit="10" d="M22.2,17c-0.7-0.2-1.3-0.9-1.3-1.6v-0.2
				c0-0.2,0.1-0.3,0.2-0.4c1.4-1.4,2.3-3.9,2.3-5.6c0-2.6-2.1-4.7-4.7-4.7c-0.8,0-1.6,0.2-2.2,0.6c0.4,0.2,0.7,0.4,1.1,0.6
				c0.4-0.1,0.8-0.2,1.2-0.2c2,0,3.7,1.7,3.7,3.7c0,1.4-0.8,3.6-2,4.9c-0.3,0.3-0.5,0.7-0.5,1.1v0.2c0,1.2,0.8,2.3,2,2.6
				c2.7,0.7,4.4,2.2,4.4,3.7c-0.1,0.3-0.8,0.7-2.1,1.1c0,0.3,0.1,0.6,0.1,0.9c0,0.1,0,0.1,0,0.2c1.8-0.5,3-1.3,3-2.2
				C27.4,19.6,25.2,17.8,22.2,17z"/>
		</g>
	</g>
</g>
<g id="Ebene_2">
</g>
</svg>
