<?xml version="1.0" encoding="utf-8"?>
<!-- Generator: Adobe Illustrator 22.0.1, SVG Export Plug-In . SVG Version: 6.00 Build 0)  -->
<svg version="1.2" baseProfile="tiny" xmlns="http://www.w3.org/2000/svg" xmlns:xlink="http://www.w3.org/1999/xlink" x="0px"
	 y="0px" width="32px" height="32px" viewBox="0 0 32 32" xml:space="preserve">
<g id="Ebene_1">
	<path fill="#909090" d="M3.2,21.4c0,0.5,0.4,0.9,0.9,0.9H8v4.8c0,0.3,0.2,0.7,0.5,0.9c0.1,0.1,0.3,0.1,0.4,0.1c0.2,0,0.4,0,0.6-0.2
		l7.7-5.6h10.7c0.5,0,0.9-0.4,0.9-0.9V4.9c0-0.5-0.4-0.9-0.9-0.9H4.1c-0.5,0-0.9,0.4-0.9,0.9L3.2,21.4z M5.1,5.8h21.8v14.6h-10
		c-0.2,0-0.4,0-0.6,0.2l-6.4,4.7v-3.9c0-0.5-0.4-0.9-0.9-0.9H5.1L5.1,5.8L5.1,5.8z"/>
	<path fill="#909090" d="M9.7,11.6c-2.1,0-2.1,3.2,0,3.2S11.8,11.6,9.7,11.6z"/>
	<path fill="#909090" d="M16,14.8c2.1,0,2.1-3.2,0-3.2S13.9,14.8,16,14.8z"/>
	<path fill="#909090" d="M22.3,14.8c2.1,0,2.1-3.2,0-3.2S20.2,14.8,22.3,14.8z"/>
</g>
<g id="Ebene_2">
</g>
</svg>
