<?xml version="1.0" encoding="utf-8"?>
<!-- Generator: Adobe Illustrator 22.0.1, SVG Export Plug-In . SVG Version: 6.00 Build 0)  -->
<svg version="1.2" baseProfile="tiny" xmlns="http://www.w3.org/2000/svg" xmlns:xlink="http://www.w3.org/1999/xlink" x="0px"
	 y="0px" width="32px" height="32px" viewBox="0 0 32 32" xml:space="preserve">
<g id="Ebene_1">
	<path fill="#909090" d="M8.9,18c1.8-0.1,3.5,0.1,5.2,0.5c0.5,0.2,1,0.3,1.4,0.7c0.1,0.1,0.1,0.3,0.1,0.4c0,0.3,0,0.5,0,0.7
		c-0.1,0.2-0.3,0.3-0.5,0.4c-0.7,0.4-1.5,0.5-2.2,0.7c-1.7,0.3-3.4,0.3-5.1,0.1c-0.9-0.1-1.7-0.3-2.5-0.5c-0.4-0.2-0.7-0.3-1.1-0.6
		c-0.1-0.1-0.1-0.2-0.1-0.4c0-0.3,0-0.5,0-0.7c0.1-0.2,0.3-0.3,0.4-0.4c0.5-0.3,1.1-0.4,1.6-0.6C7.1,18.2,8,18.1,8.9,18z"/>
	<path fill="#909090" d="M4.8,22.1c0.1,0,0.1,0,0.2,0c1,0.3,2,0.5,2.9,0.6c1.7,0.2,3.4,0.1,5.1-0.2c0.6-0.1,1.2-0.2,1.8-0.4
		c0.1-0.1,0.2-0.1,0.3,0c0.2,0.1,0.4,0.2,0.5,0.4c0.1,0.1,0.1,0.2,0.1,0.3c0,0.3,0,0.5,0,0.8c-0.1,0.2-0.3,0.2-0.4,0.3
		c-0.5,0.3-1.2,0.5-1.8,0.6c-1,0.2-1.9,0.3-2.9,0.3c-1.7,0.1-3.4-0.1-5-0.5c-0.4-0.2-0.9-0.3-1.3-0.6c-0.1-0.1-0.2-0.2-0.2-0.3
		c0-0.3,0-0.6,0-0.9c0-0.1,0.1-0.2,0.2-0.3C4.5,22.3,4.6,22.1,4.8,22.1z"/>
	<path fill="#909090" d="M4.8,25.3c0.1,0,0.1,0,0.2,0c1,0.3,2,0.5,2.9,0.6c1.7,0.2,3.4,0.1,5.1-0.2c0.6-0.1,1.2-0.2,1.8-0.4
		c0.1-0.1,0.2-0.1,0.3,0c0.2,0.1,0.4,0.2,0.5,0.4c0.1,0.1,0.1,0.2,0.1,0.3c0,0.3,0,0.5,0,0.8c-0.1,0.2-0.3,0.2-0.4,0.3
		c-0.5,0.3-1.2,0.5-1.8,0.6c-1,0.2-1.9,0.3-2.9,0.3c-1.7,0.1-3.4-0.1-5-0.5c-0.4-0.2-0.9-0.3-1.3-0.6c-0.1-0.1-0.2-0.2-0.2-0.3
		c0-0.3,0-0.6,0-0.9c0-0.1,0.1-0.2,0.2-0.3C4.5,25.5,4.6,25.4,4.8,25.3z"/>
	<path fill="#909090" stroke="#909090" stroke-width="0.25" stroke-miterlimit="10" d="M20.9,4c-0.1-0.1-0.3-0.2-0.5-0.2h-9.5
		C9.8,3.8,9,4.6,9,5.7l0,0v9.6c0,0.4,0.3,0.7,0.7,0.7s0.7-0.3,0.7-0.7V5.7c0-0.3,0.2-0.5,0.5-0.5h8.6v4.2c0,0.9,0.7,1.5,1.6,1.6h4.2
		v13.8c0,0.3-0.2,0.5-0.5,0.5h-5.9c-0.4,0-0.7,0.3-0.7,0.7c0,0.4,0.3,0.7,0.7,0.7h5.9c1,0,1.9-0.8,1.9-1.9V9.9
		c0-0.2-0.1-0.3-0.2-0.5L20.9,4z M20.7,9.3V5.8l3.8,3.8H21C20.8,9.6,20.7,9.4,20.7,9.3L20.7,9.3L20.7,9.3z"/>
</g>
<g id="Ebene_3">
</g>
<g id="Ebene_2">
</g>
</svg>
