<?xml version="1.0" encoding="utf-8"?>
<!-- Generator: Adobe Illustrator 22.0.1, SVG Export Plug-In . SVG Version: 6.00 Build 0)  -->
<svg version="1.1" xmlns="http://www.w3.org/2000/svg" xmlns:xlink="http://www.w3.org/1999/xlink" x="0px" y="0px" width="32px"
	 height="32px" viewBox="0 0 32 32" style="enable-background:new 0 0 32 32;" xml:space="preserve">
<style type="text/css">
	.st0{fill:none;stroke:#000000;stroke-linejoin:round;stroke-miterlimit:10;}
	.st1{fill:none;stroke:#000000;stroke-linecap:round;stroke-linejoin:round;stroke-miterlimit:10;}
	.st2{fill:none;stroke:#000000;stroke-linecap:square;stroke-linejoin:round;stroke-miterlimit:10;}
	.st3{fill:none;stroke:#FF0000;stroke-linejoin:round;stroke-miterlimit:10;}
	.st4{fill:none;stroke:#000000;stroke-miterlimit:10;}
	.st5{fill:none;stroke:#000000;stroke-linecap:square;stroke-miterlimit:10;}
	.st6{fill:none;stroke:#000000;stroke-linecap:round;stroke-miterlimit:10;}
	.st7{fill:none;stroke:#000000;stroke-linecap:square;stroke-linejoin:round;}
	.st8{fill:none;stroke:#000000;stroke-width:0.9701;stroke-linejoin:round;stroke-miterlimit:10;}
	.st9{fill:none;stroke:#FF0000;stroke-linecap:round;stroke-linejoin:round;stroke-miterlimit:10;}
	.st10{stroke:#000000;stroke-linejoin:round;stroke-miterlimit:10;}
	.st11{display:none;fill:none;stroke:#000000;stroke-miterlimit:10;}
	.st12{fill:none;stroke:#FF0000;stroke-linecap:square;stroke-linejoin:round;stroke-miterlimit:10;}
	.st13{fill:#FF0000;}
	.st14{fill:none;stroke:#FF0000;stroke-miterlimit:10;}
	.st15{fill:none;stroke:#000000;stroke-width:1.0026;stroke-miterlimit:10;}
	.st16{fill:none;stroke:#FF0000;stroke-linecap:square;stroke-miterlimit:10;}
	.st17{fill:#C8C8C8;}
	.st18{opacity:0.2;fill:#FF0000;}
	.st19{fill:#B3B3B3;}
	.st20{fill:none;stroke:#000000;stroke-width:1.0305;stroke-linejoin:round;stroke-miterlimit:10;}
	.st21{fill:none;stroke:#000000;stroke-width:0.907;stroke-linejoin:round;stroke-miterlimit:10;}
	.st22{fill:#FFFFFF;}
	.st23{fill:#333333;}
	.st24{fill:none;stroke:#FFFFFF;stroke-linejoin:round;stroke-miterlimit:10;}
	.st25{clip-path:url(#SVGID_3_);}
	.st26{clip-path:url(#SVGID_4_);fill:none;stroke:#FFFFFF;stroke-linejoin:round;stroke-miterlimit:10;}
	.st27{clip-path:url(#SVGID_6_);fill:none;stroke:#FFFFFF;stroke-linejoin:round;stroke-miterlimit:10;}
	.st28{fill:none;stroke:#FFFFFF;stroke-linecap:round;stroke-linejoin:round;stroke-miterlimit:10;}
</style>
<g id="cat-pg">
</g>
<g id="Guidelines">
	<g>
		<path class="st0" d="M17.9,19.8c-4.2-0.7-7-4.7-6.2-8.9c0.4-2,1.5-3.8,3.2-5c1.3-0.9,2.8-1.4,4.4-1.4c0.5,0,0.9,0,1.4,0.1
			c4.2,0.8,7,4.8,6.2,9S22,20.6,17.9,19.8z"/>
		<path class="st0" d="M24.3,18.2l3.3,3.3c0.4,0.4,0.6,0.8,0.5,1.4c-0.1,0.9-0.9,1.6-1.8,1.5c-0.1,0-0.1,0-0.2,0l-0.2,0
			c-0.5-0.1-0.9-0.5-1.1-0.9L23,19.1"/>
		<g>
			<polyline class="st0" points="20.8,22.3 20.8,27.5 8.8,27.5 3.8,22.5 3.8,6.5 11.4,6.5 			"/>
			<polyline class="st0" points="8.8,27.5 8.8,22.5 3.8,22.5 			"/>
		</g>
		<g>
			<g>
				<polyline class="st0" points="23.4,13.8 23.4,9.6 19.2,9.6 				"/>
			</g>
			<polyline class="st0" points="15,14.9 18,11.9 19.5,13.4 23.4,9.6 			"/>
		</g>
	</g>
</g>
</svg>
