<?xml version="1.0" encoding="utf-8"?>
<!-- Generator: Adobe Illustrator 22.0.1, SVG Export Plug-In . SVG Version: 6.00 Build 0)  -->
<svg version="1.2" baseProfile="tiny" xmlns="http://www.w3.org/2000/svg" xmlns:xlink="http://www.w3.org/1999/xlink" x="0px"
	 y="0px" width="32px" height="32px" viewBox="0 0 32 32" xml:space="preserve">
<g id="Ebene_3">
</g>
<g id="Guidelines">
	<g>
		
			<line fill="none" stroke="#000000" stroke-linecap="round" stroke-linejoin="round" stroke-miterlimit="10" x1="9.3" y1="20.2" x2="14.2" y2="19.3"/>
		
			<line fill="none" stroke="#000000" stroke-linecap="round" stroke-linejoin="round" stroke-miterlimit="10" x1="9.6" y1="22.2" x2="17.5" y2="20.8"/>
		<path fill="none" stroke="#000000" stroke-linecap="square" stroke-miterlimit="10" d="M20.7,24.3L5.9,26.9
			c-0.8,0.1-1.6-0.4-1.7-1.2l-0.5-3c1.4-0.2,2.3-1.5,2-2.9c-0.2-1.4-1.5-2.3-2.9-2l-0.5-3c-0.1-0.8,0.4-1.6,1.2-1.7l2.1-0.4"/>
		<path fill="none" stroke="#000000" stroke-linecap="square" stroke-miterlimit="10" d="M26.6,23.2l2-0.3c0.8-0.1,1.4-0.9,1.2-1.7
			l-0.5-3c-1.4,0.2-2.7-0.7-2.9-2c-0.2-1.4,0.7-2.7,2-2.9l-0.5-3c-0.1-0.8-0.9-1.4-1.7-1.2l-2,0.3"/>
		<g>
			<path d="M21.8,13.2c0.3,0,0.4-0.3,0.4-0.5l-0.6-3.2l-0.9,0.2l0.6,3.2C21.2,13,21.4,13.2,21.8,13.2C21.7,13.2,21.7,13.2,21.8,13.2
				z"/>
			<path d="M22.8,19c0.3,0,0.4-0.3,0.4-0.5l-0.6-3.4c0-0.3-0.3-0.4-0.5-0.4c-0.3,0-0.4,0.3-0.4,0.5l0.6,3.4
				C22.3,18.9,22.5,19.1,22.8,19C22.7,19.1,22.8,19.1,22.8,19z"/>
			<path d="M23.6,20.9c0-0.3-0.3-0.4-0.5-0.4c-0.3,0-0.4,0.3-0.4,0.5l0.6,3.2l0.9-0.2L23.6,20.9z"/>
		</g>
	</g>
	<g>
		<path d="M12.7,3.9c2.8,0,5,2.2,5,5c0,2.8-2.2,5-5,5s-5-2.2-5-5C7.7,6.2,9.9,3.9,12.7,3.9 M12.7,2.9c-3.3,0-6,2.7-6,6
			c0,3.3,2.7,6,6,6s6-2.7,6-6C18.7,5.6,16,2.9,12.7,2.9L12.7,2.9z"/>
		<g>
			<path d="M12.3,10.8c0-0.1,0-0.2,0-0.3c0-0.3,0-0.6,0.1-0.9c0.1-0.2,0.2-0.4,0.3-0.6c0.1-0.1,0.3-0.3,0.6-0.6
				C13.7,8.2,13.9,8,14,7.8s0.1-0.3,0.1-0.5c0-0.3-0.1-0.6-0.4-0.9S13.1,6,12.7,6c-0.4,0-0.7,0.1-0.9,0.4S11.4,7,11.3,7.5l-0.9-0.1
				c0.1-0.7,0.3-1.2,0.7-1.5c0.4-0.4,0.9-0.5,1.6-0.5c0.7,0,1.3,0.2,1.7,0.6S15,6.7,15,7.2c0,0.3-0.1,0.6-0.2,0.9s-0.4,0.6-0.9,1
				c-0.3,0.3-0.5,0.4-0.6,0.6s-0.2,0.3-0.2,0.4s-0.1,0.4-0.1,0.8H12.3z M12.2,12.6v-1h1v1H12.2z"/>
		</g>
	</g>
</g>
</svg>
