<?xml version="1.0" encoding="utf-8"?>
<!-- Generator: Adobe Illustrator 22.0.1, SVG Export Plug-In . SVG Version: 6.00 Build 0)  -->
<svg version="1.2" baseProfile="tiny" xmlns="http://www.w3.org/2000/svg" xmlns:xlink="http://www.w3.org/1999/xlink" x="0px"
	 y="0px" width="32px" height="32px" viewBox="0 0 32 32" xml:space="preserve">
<g id="Ebene_1">
	<g>
		<path fill="#909090" stroke="#909090" stroke-width="0.25" stroke-miterlimit="10" d="M24.8,18.5c3.3-3.7,3-9.4-0.7-12.7
			s-9.4-3-12.7,0.7s-3,9.4,0.7,12.7c1.2,1.1,2.8,1.9,4.4,2.2c0.5,0.1,1.1,0.1,1.6,0.1c1.1,0,2.2-0.2,3.3-0.6l1.9,4.2
			c0.4,0.8,1.1,1.4,1.9,1.7c0.1,0,0.2,0,0.3,0.1c0.2,0,0.4,0,0.5,0c1.7,0,3-1.4,3-3c0-0.8-0.3-1.6-0.9-2.1L24.8,18.5z M16.7,20
			c-4.2-0.7-7-4.7-6.2-8.9c0.4-2,1.5-3.8,3.2-5c1.3-0.9,2.8-1.4,4.4-1.4c0.5,0,0.9,0,1.4,0.1c4.2,0.8,7,4.8,6.2,9S20.9,20.8,16.7,20
			z M27.7,24c-0.1,0.9-0.9,1.6-1.8,1.5c-0.1,0-0.1,0-0.2,0l-0.2,0c-0.5-0.1-0.9-0.5-1.1-0.9l-1.9-4.3c0.2-0.1,0.4-0.3,0.7-0.4l0,0
			c0.2-0.2,0.4-0.3,0.6-0.5l3.3,3.3C27.5,23,27.7,23.5,27.7,24z"/>
		<path fill="#909090" stroke="#909090" stroke-width="0.25" stroke-miterlimit="10" d="M8.6,28.4c0.1,0.1,0.3,0.2,0.5,0.2h9.5
			c1,0,1.9-0.8,1.9-1.9l0,0v-2.6c0-0.4-0.3-0.7-0.7-0.7c-0.4,0-0.7,0.3-0.7,0.7v2.6c0,0.3-0.2,0.5-0.5,0.5h-8.6v-4.2
			c0-0.9-0.7-1.5-1.6-1.6H4.3V7.7c0-0.3,0.2-0.5,0.5-0.5h2.9c0.4,0,0.7-0.3,0.7-0.7c0-0.4-0.3-0.7-0.7-0.7H4.9C3.8,5.8,3,6.6,3,7.7
			v14.8c0,0.2,0.1,0.3,0.2,0.5L8.6,28.4z M8.7,23.1v3.6l-3.8-3.8h3.6C8.6,22.8,8.7,22.9,8.7,23.1L8.7,23.1L8.7,23.1z"/>
		<path fill="#909090" stroke="#909090" stroke-width="0.25" stroke-miterlimit="10" d="M23.5,12.6v-2.4c0-0.4-0.3-0.7-0.7-0.7h-2.4
			c-0.4,0-0.7,0.3-0.7,0.7s0.3,0.7,0.7,0.7h0.8l-2.3,2.4l-2.1-2.1c-0.3-0.3-0.7-0.3-0.9,0l-3.1,3.1c-0.3,0.3-0.3,0.7,0,0.9
			c0.3,0.3,0.7,0.3,0.9,0c0,0,0,0,0,0l2.7-2.7l2.1,2.1c0.3,0.3,0.7,0.3,0.9,0l2.8-2.8v0.8c0,0.4,0.3,0.7,0.7,0.7S23.6,13,23.5,12.6
			L23.5,12.6z"/>
	</g>
</g>
<g id="Ebene_3">
</g>
<g id="Ebene_2">
</g>
</svg>
