<?xml version="1.0" encoding="utf-8"?>
<!-- Generator: Adobe Illustrator 22.1.0, SVG Export Plug-In . SVG Version: 6.00 Build 0)  -->
<svg version="1.1" xmlns="http://www.w3.org/2000/svg" xmlns:xlink="http://www.w3.org/1999/xlink" x="0px" y="0px" width="30px"
	 height="24px" viewBox="0 0 30 24" style="enable-background:new 0 0 30 24;" xml:space="preserve">
<style type="text/css">
	.st0{fill:#CCCCCC;}
	.st1{fill:#777777;}
	.st2{opacity:0.1;}
</style>
<g id="Ebene_1">
	<g id="Ebene_1_1_">
		<g>
			<g>
				<g>
					<g>
						<g>
							<path class="st0" d="M15,21c-1.7,0-3.5-0.5-5-1.3l1.1-1.9c1.2,0.7,2.5,1,3.9,1V21z M17.6,20.7L17,18.5c1.3-0.4,2.5-1.1,3.5-2
								l1.6,1.6C20.8,19.3,19.3,20.2,17.6,20.7z M7.9,18.1c-1.2-1.2-2.1-2.8-2.6-4.5l1.1-0.3l1.1-0.2l-1.1,0.2l1.1-0.2
								c0.3,1.3,1,2.5,2,3.4L7.9,18.1z M7.2,11H5c0-1.7,0.5-3.5,1.3-5l1.9,1.1C7.6,8.3,7.2,9.7,7.2,11z M9.5,5.5L7.9,4
								c1.2-1.2,2.8-2.1,4.5-2.6l0.3,1.1l0.3,1C11.7,3.8,10.5,4.5,9.5,5.5z"/>
						</g>
					</g>
				</g>
				<g>
					<g>
						<path class="st1" d="M23.7,16l-1.9-1.1c2.1-3.7,0.9-8.5-2.8-10.6c-1.2-0.7-2.5-1-3.9-1l0,0L15,1l0,0c1.7,0,3.5,0.5,5,1.3
							C24.8,5.1,26.4,11.2,23.7,16z"/>
					</g>
				</g>
			</g>
		</g>
	</g>
</g>
<g id="Kundenfarbe_anpassen">
	<path class="st2" d="M15,21c-1.7,0-3.5-0.5-5-1.3l1.1-1.9c1.2,0.7,2.5,1,3.9,1V21z M17.6,20.7L17,18.5c1.3-0.4,2.5-1.1,3.5-2
		l1.6,1.6C20.8,19.3,19.3,20.2,17.6,20.7z M7.9,18.1c-1.2-1.2-2.1-2.8-2.6-4.5l1.1-0.3l1.1-0.2l-1.1,0.2l1.1-0.2
		c0.3,1.3,1,2.5,2,3.4L7.9,18.1z M7.2,11H5c0-1.7,0.5-3.5,1.3-5l1.9,1.1C7.6,8.3,7.2,9.7,7.2,11z M9.5,5.5L7.9,4
		c1.2-1.2,2.8-2.1,4.5-2.6l0.3,1.1l0.3,1C11.7,3.8,10.5,4.5,9.5,5.5z"/>
	<path class="st2" d="M23.7,16l-1.9-1.1c2.1-3.7,0.9-8.5-2.8-10.6c-1.2-0.7-2.5-1-3.9-1l0,0L15,1l0,0c1.7,0,3.5,0.5,5,1.3
		C24.8,5.1,26.4,11.2,23.7,16z"/>
</g>
</svg>
