<?xml version="1.0" encoding="utf-8"?>
<!-- Generator: Adobe Illustrator 22.1.0, SVG Export Plug-In . SVG Version: 6.00 Build 0)  -->
<svg version="1.1" xmlns="http://www.w3.org/2000/svg" xmlns:xlink="http://www.w3.org/1999/xlink" x="0px" y="0px" width="30px"
	 height="24px" viewBox="0 0 30 24" style="enable-background:new 0 0 30 24;" xml:space="preserve">
<style type="text/css">
	.st0{fill:#CCCCCC;}
	.st1{opacity:0.1;}
</style>
<g id="Ebene_1">
	<g id="Ebene_1_1_">
		<g id="Ebene_2_1_">
		</g>
		<g>
			<g>
				<g>
					<path class="st0" d="M15,21c-1.7,0-3.5-0.5-5-1.3l1.1-1.9c1.2,0.7,2.5,1,3.9,1V21z M17.6,20.7l-0.3-1.1l-0.2-1.1
						c1.3-0.3,2.5-1,3.4-2l1.6,1.6C20.8,19.3,19.3,20.2,17.6,20.7z M7.9,18.1c-1.2-1.2-2.1-2.8-2.6-4.5l1.1-0.3l1.1-0.2l-1.1,0.2
						l1.1-0.2c0.3,1.3,1,2.5,2,3.4L7.9,18.1z M23.6,16l-1.9-1.1c0.7-1.2,1.1-2.5,1.1-3.9H25C25,12.8,24.5,14.5,23.6,16z M5,11
						c0-1.7,0.5-3.5,1.3-5l1.9,1.1c-0.7,1.2-1,2.5-1,3.9H5z M22.5,9V8.9c-0.3-1.3-1-2.4-2-3.4l1.6-1.6c1.2,1.2,2.1,2.8,2.6,4.4
						L22.5,9z M9.5,5.5L7.9,4c1.2-1.2,2.8-2.1,4.5-2.6l0.4,1.1l0.2,1C11.7,3.8,10.5,4.5,9.5,5.5z M18.9,4.3
						c-1.2-0.7-2.5-1.1-3.9-1.1V1c1.7,0,3.5,0.5,5,1.4L18.9,4.3z"/>
				</g>
			</g>
		</g>
	</g>
</g>
<g id="Kundenfarbe_anpassen">
	<path class="st1" d="M15,21c-1.7,0-3.5-0.5-5-1.3l1.1-1.9c1.2,0.7,2.5,1,3.9,1V21z M17.6,20.7l-0.3-1.1l-0.2-1.1
		c1.3-0.3,2.5-1,3.4-2l1.6,1.6C20.8,19.3,19.3,20.2,17.6,20.7z M7.9,18.1c-1.2-1.2-2.1-2.8-2.6-4.5l1.1-0.3l1.1-0.2l-1.1,0.2
		l1.1-0.2c0.3,1.3,1,2.5,2,3.4L7.9,18.1z M23.6,16l-1.9-1.1c0.7-1.2,1.1-2.5,1.1-3.9H25C25,12.8,24.5,14.5,23.6,16z M5,11
		c0-1.7,0.5-3.5,1.3-5l1.9,1.1c-0.7,1.2-1,2.5-1,3.9H5z M22.5,9V8.9c-0.3-1.3-1-2.4-2-3.4l1.6-1.6c1.2,1.2,2.1,2.8,2.6,4.4L22.5,9z
		 M9.5,5.5L7.9,4c1.2-1.2,2.8-2.1,4.5-2.6l0.4,1.1l0.2,1C11.7,3.8,10.5,4.5,9.5,5.5z M18.9,4.3c-1.2-0.7-2.5-1.1-3.9-1.1V1
		c1.7,0,3.5,0.5,5,1.4L18.9,4.3z"/>
</g>
</svg>
