<?xml version="1.0" encoding="utf-8"?>
<!-- Generator: Adobe Illustrator 22.0.1, SVG Export Plug-In . SVG Version: 6.00 Build 0)  -->
<svg version="1.2" baseProfile="tiny" xmlns="http://www.w3.org/2000/svg" xmlns:xlink="http://www.w3.org/1999/xlink" x="0px"
	 y="0px" width="32px" height="32px" viewBox="0 0 32 32" xml:space="preserve">
<g id="Ebene_1">
	<path fill="none" stroke="#909090" stroke-width="2" stroke-miterlimit="10" d="M19.7,8.6h-7.5L13,6c0.2-0.6,0.6-1,1-1h4
		c0.4,0,0.8,0.4,1,1L19.7,8.6z"/>
	<path fill="#909090" d="M17.5,16.1v1.1h-3v-1.1H17.5 M17.5,14.1h-3c-1.1,0-2,0.9-2,2v1.1c0,1.1,0.9,2,2,2h3c1.1,0,2-0.9,2-2v-1.1
		C19.5,15,18.6,14.1,17.5,14.1L17.5,14.1z"/>
	<path fill="#909090" stroke="#909090" stroke-width="0.75" stroke-miterlimit="10" d="M28.4,15.8c-0.2,0.1-0.4,0.2-0.6,0.3v6.8
		c0,0.3-0.2,0.5-0.5,0.5H4.8c-0.3,0-0.5-0.2-0.5-0.5V16c-0.2-0.1-0.5-0.2-0.6-0.3c-0.2-0.1-0.3-0.2-0.4-0.3v7.3
		c0,0.9,0.7,1.6,1.6,1.6h22.4c0.9,0,1.6-0.7,1.6-1.6c0,0,0-4.8,0-7.3C28.7,15.6,28.6,15.7,28.4,15.8z"/>
	<path fill="none" stroke="#909090" stroke-width="2" stroke-miterlimit="10" d="M14.3,16.3c-1,0-1.9-0.1-2.6-0.3
		c-1.8-0.3-6.2-2.2-7.9-2.9c-0.4-0.2-0.6-0.6-0.6-1V9.7c0-0.6,0.5-1.1,1.1-1.1h23.5c0.6,0,1.1,0.5,1.1,1.1v2.5c0,0.4-0.2,0.8-0.6,1
		c-1.7,0.7-6.1,2.6-7.9,2.9c-0.7,0.1-1.6,0.2-2.6,0.3"/>
</g>
<g id="Ebene_2">
</g>
</svg>
